<svg width="149" height="42" viewBox="0 0 149 42" fill="none" xmlns="http://www.w3.org/2000/svg">
<path d="M41.44 38.7895L32.6316 30.0096C34.8009 27.0612 35.9184 23.4575 35.5897 19.7883C35.1953 15.2019 32.8288 10.6809 28.8191 6.6186C17.3156 -4.71655 3.37992 1.90108 2.85404 2.09764L2.32817 2.29421L2.06523 2.8839C1.9995 3.08046 -4.83686 17.2985 6.73236 28.8303C11.3338 33.4167 16.461 35.7755 21.3254 35.7755C24.4149 35.7755 27.5701 34.6616 30.1337 32.696L38.9421 41.4758C39.3365 41.869 39.8624 42 40.2568 42C40.6512 42 41.1771 41.8034 41.5715 41.4758C42.1631 40.5585 42.1631 39.5102 41.44 38.7895ZM9.296 26.2094C0.684814 17.6261 4.16873 7.60142 5.08901 5.04609C7.65264 3.93223 17.71 0.721699 26.2554 9.23944C29.7393 12.7121 31.5799 16.3812 31.9086 19.9849C32.1058 22.7368 31.5142 25.2921 29.8708 27.2578L25.1379 22.5402V14.0225C25.1379 12.9086 24.4149 12.1879 23.2974 12.1879C22.1799 12.1879 21.4568 12.9086 21.4568 14.0225V18.9366L16.3953 13.8259C15.6722 13.1052 14.5547 13.1052 13.8317 13.8259C13.1086 14.5467 13.1086 15.6605 13.8317 16.3812L17.3156 19.8539H12.3855C11.268 19.8539 10.5449 20.5746 10.5449 21.6885C10.5449 22.8023 11.268 23.523 12.3855 23.523H20.9967L22.1142 24.6369L27.2414 29.7476C22.3771 33.6788 15.3435 32.1718 9.296 26.2094Z" fill="white"/>
<path d="M54.212 32.224C53.1853 32.224 52.0373 32.1867 50.768 32.112C49.5173 32.0373 48.4067 31.944 47.436 31.832V29.62C49.8627 29.8627 51.888 29.984 53.512 29.984C54.52 29.984 55.3133 29.9467 55.892 29.872C56.4893 29.7787 56.9933 29.62 57.404 29.396C57.7773 29.172 58.02 28.8453 58.132 28.416C58.244 27.968 58.3 27.38 58.3 26.652C58.3 25.7747 58.2533 25.1587 58.16 24.804C58.0667 24.4307 57.8427 24.16 57.488 23.992C57.152 23.824 56.564 23.7027 55.724 23.628L50.964 23.096C49.8067 22.9653 48.9293 22.6947 48.332 22.284C47.7533 21.8547 47.3613 21.304 47.156 20.632C46.9693 19.9413 46.876 19.0453 46.876 17.944C46.876 16.4133 47.1373 15.256 47.66 14.472C48.2013 13.688 48.948 13.1653 49.9 12.904C50.8707 12.6427 52.168 12.512 53.792 12.512C54.8747 12.512 55.976 12.5587 57.096 12.652C58.216 12.7453 59.1027 12.8573 59.756 12.988V15.116C59.0467 15.004 58.1693 14.92 57.124 14.864C56.0787 14.7893 55.108 14.752 54.212 14.752C53.1667 14.752 52.3267 14.7987 51.692 14.892C51.0573 14.9853 50.5627 15.144 50.208 15.368C49.816 15.592 49.564 15.8907 49.452 16.264C49.34 16.6373 49.284 17.1693 49.284 17.86C49.284 18.6253 49.34 19.1853 49.452 19.54C49.564 19.876 49.7787 20.128 50.096 20.296C50.4133 20.4453 50.936 20.5573 51.664 20.632L56.368 21.164C57.488 21.276 58.356 21.472 58.972 21.752C59.588 22.032 60.036 22.536 60.316 23.264C60.5773 23.936 60.708 25.0093 60.708 26.484C60.708 28.1827 60.4467 29.452 59.924 30.292C59.4013 31.1133 58.7013 31.6453 57.824 31.888C56.9467 32.112 55.7427 32.224 54.212 32.224ZM65.4094 32V12.736H67.8174V32H65.4094ZM90.8651 32V16.852H90.7531L84.1451 32H82.3811L75.8011 16.852H75.6891V32H73.4211V12.736H76.6691L83.2491 27.716H83.3891L89.9691 12.736H93.2171V32H90.8651ZM98.8234 12.736H107.279C108.829 12.736 110.005 12.988 110.807 13.492C111.61 13.996 112.142 14.6773 112.403 15.536C112.665 16.3947 112.795 17.5053 112.795 18.868C112.795 20.1747 112.665 21.2667 112.403 22.144C112.142 23.0027 111.601 23.6933 110.779 24.216C109.977 24.7387 108.791 25 107.223 25H101.231V32H98.8234V12.736ZM106.411 22.76C107.625 22.76 108.511 22.6387 109.071 22.396C109.631 22.1347 109.995 21.7427 110.163 21.22C110.331 20.6973 110.415 19.9133 110.415 18.868C110.415 17.8227 110.331 17.0387 110.163 16.516C110.014 15.9933 109.659 15.6107 109.099 15.368C108.558 15.1067 107.681 14.976 106.467 14.976H101.231V22.76H106.411ZM117.089 32V12.736H119.497V29.676H128.485V32H117.089ZM132.155 32V12.736H144.699V14.976H134.563V21.164H143.355V23.404H134.563V29.76H144.699V32H132.155Z" fill="white"/>
<path d="M50.768 32.112L50.7382 32.6111L50.7386 32.6111L50.768 32.112ZM47.436 31.832H46.936V32.2776L47.3787 32.3287L47.436 31.832ZM47.436 29.62L47.4858 29.1225L46.936 29.0675V29.62H47.436ZM55.892 29.872L55.956 30.3681L55.9692 30.366L55.892 29.872ZM57.404 29.396L57.6434 29.8349L57.6524 29.83L57.6612 29.8247L57.404 29.396ZM58.132 28.416L58.6158 28.5422L58.6171 28.5373L58.132 28.416ZM58.16 24.804L57.6749 24.9253L57.6765 24.9312L58.16 24.804ZM57.488 23.992L57.2643 24.4393L57.274 24.4439L57.488 23.992ZM55.724 23.628L55.6684 24.125L55.6797 24.126L55.724 23.628ZM50.964 23.096L50.9079 23.5928L50.9085 23.5929L50.964 23.096ZM48.332 22.284L48.0341 22.6855L48.0413 22.6909L48.0487 22.696L48.332 22.284ZM47.156 20.632L46.6733 20.7625L46.6754 20.7703L46.6778 20.7781L47.156 20.632ZM47.66 14.472L47.2485 14.1879L47.244 14.1946L47.66 14.472ZM49.9 12.904L49.77 12.4212L49.7676 12.4218L49.9 12.904ZM59.756 12.988H60.256V12.5781L59.8541 12.4977L59.756 12.988ZM59.756 15.116L59.678 15.6099L60.256 15.7011V15.116H59.756ZM57.124 14.864L57.0884 15.3628L57.0973 15.3633L57.124 14.864ZM51.692 14.892L51.7647 15.3867L51.7647 15.3867L51.692 14.892ZM50.208 15.368L50.4561 15.8021L50.4657 15.7966L50.475 15.7907L50.208 15.368ZM49.452 19.54L48.9751 19.6906L48.9777 19.6981L49.452 19.54ZM50.096 20.296L49.8621 20.7379L49.8725 20.7434L49.8831 20.7484L50.096 20.296ZM51.664 20.632L51.7202 20.1351L51.715 20.1346L51.664 20.632ZM56.368 21.164L56.3118 21.6609L56.3182 21.6615L56.368 21.164ZM58.972 21.752L59.1789 21.2968L59.1789 21.2968L58.972 21.752ZM60.316 23.264L59.8493 23.4435L59.85 23.4452L60.316 23.264ZM59.924 30.292L60.3459 30.5605L60.3485 30.5562L59.924 30.292ZM57.824 31.888L57.9477 32.3726L57.9573 32.3699L57.824 31.888ZM54.212 31.724C53.1971 31.724 52.0591 31.6871 50.7974 31.6129L50.7386 32.6111C52.0156 32.6862 53.1736 32.724 54.212 32.724V31.724ZM50.7978 31.6129C49.5539 31.5386 48.4527 31.446 47.4933 31.3353L47.3787 32.3287C48.3606 32.442 49.4808 32.536 50.7382 32.6111L50.7978 31.6129ZM47.936 31.832V29.62H46.936V31.832H47.936ZM47.3862 30.1175C49.8221 30.3611 51.8654 30.484 53.512 30.484V29.484C51.9106 29.484 49.9032 29.3642 47.4858 29.1225L47.3862 30.1175ZM53.512 30.484C54.5284 30.484 55.3463 30.4466 55.956 30.3679L55.828 29.3761C55.2804 29.4468 54.5116 29.484 53.512 29.484V30.484ZM55.9692 30.366C56.6076 30.2663 57.1699 30.0932 57.6434 29.8349L57.1646 28.9571C56.8168 29.1468 56.3711 29.2911 55.8148 29.378L55.9692 30.366ZM57.6612 29.8247C58.1492 29.532 58.4715 29.0954 58.6158 28.5422L57.6482 28.2898C57.5685 28.5952 57.4055 28.812 57.1468 28.9673L57.6612 29.8247ZM58.6171 28.5373C58.743 28.0337 58.8 27.4003 58.8 26.652H57.8C57.8 27.3597 57.745 27.9023 57.6469 28.2947L58.6171 28.5373ZM58.8 26.652C58.8 25.7747 58.755 25.1004 58.6435 24.6768L57.6765 24.9312C57.7517 25.217 57.8 25.7747 57.8 26.652H58.8ZM58.6451 24.6827C58.5146 24.1609 58.1889 23.7707 57.702 23.5401L57.274 24.4439C57.4965 24.5493 57.6187 24.7004 57.6749 24.9253L58.6451 24.6827ZM57.7116 23.5448C57.2839 23.3309 56.6122 23.205 55.7683 23.13L55.6797 24.126C56.5158 24.2003 57.0201 24.3171 57.2644 24.4392L57.7116 23.5448ZM55.7795 23.1311L51.0195 22.5991L50.9085 23.5929L55.6685 24.1249L55.7795 23.1311ZM51.0201 22.5992C49.9 22.4727 49.1159 22.2162 48.6153 21.872L48.0487 22.696C48.7427 23.1732 49.7133 23.458 50.9079 23.5928L51.0201 22.5992ZM48.6299 21.8825C48.1348 21.5151 47.8074 21.0529 47.6342 20.4859L46.6778 20.7781C46.9152 21.5551 47.3719 22.1943 48.0341 22.6855L48.6299 21.8825ZM47.6387 20.5015C47.4679 19.8698 47.376 19.0222 47.376 17.944H46.376C46.376 19.0684 46.4707 20.0129 46.6733 20.7625L47.6387 20.5015ZM47.376 17.944C47.376 16.456 47.6326 15.4145 48.076 14.7493L47.244 14.1946C46.6421 15.0975 46.376 16.3706 46.376 17.944H47.376ZM48.0714 14.7561C48.5434 14.0726 49.1893 13.6176 50.0324 13.3862L49.7676 12.4218C48.7067 12.7131 47.8593 13.3034 47.2486 14.1879L48.0714 14.7561ZM50.03 13.3868C50.9404 13.1417 52.1885 13.012 53.792 13.012V12.012C52.1475 12.012 50.8009 12.1436 49.77 12.4212L50.03 13.3868ZM53.792 13.012C54.8603 13.012 55.9478 13.058 57.0545 13.1503L57.1375 12.1537C56.0042 12.0593 54.889 12.012 53.792 12.012V13.012ZM57.0545 13.1503C58.1665 13.2429 59.0316 13.353 59.6579 13.4783L59.8541 12.4977C59.1737 12.3616 58.2655 12.2477 57.1375 12.1537L57.0545 13.1503ZM59.256 12.988V15.116H60.256V12.988H59.256ZM59.834 14.6221C59.1019 14.5065 58.2062 14.4213 57.1507 14.3647L57.0973 15.3633C58.1324 15.4187 58.9914 15.5015 59.678 15.6099L59.834 14.6221ZM57.1596 14.3653C56.1044 14.2899 55.1217 14.252 54.212 14.252V15.252C55.0943 15.252 56.053 15.2888 57.0884 15.3627L57.1596 14.3653ZM54.212 14.252C53.1554 14.252 52.2882 14.2989 51.6193 14.3973L51.7647 15.3867C52.3651 15.2984 53.1779 15.252 54.212 15.252V14.252ZM51.6193 14.3973C50.9485 14.496 50.3775 14.6696 49.941 14.9453L50.475 15.7907C50.7478 15.6184 51.1662 15.4747 51.7647 15.3867L51.6193 14.3973ZM49.9599 14.9339C49.4755 15.2107 49.1278 15.6047 48.9731 16.1203L49.9309 16.4077C50.0002 16.1766 50.1565 15.9733 50.4561 15.8021L49.9599 14.9339ZM48.9731 16.1203C48.8403 16.563 48.784 17.152 48.784 17.86H49.784C49.784 17.1866 49.8397 16.7117 49.9309 16.4077L48.9731 16.1203ZM48.784 17.86C48.784 18.6343 48.8389 19.2589 48.9752 19.6906L49.9288 19.3894C49.8411 19.1118 49.784 18.6164 49.784 17.86H48.784ZM48.9777 19.6981C49.1309 20.158 49.4328 20.5107 49.8621 20.7379L50.3299 19.8541C50.1245 19.7453 49.9971 19.594 49.9263 19.3819L48.9777 19.6981ZM49.8831 20.7484C50.2817 20.936 50.8763 21.0538 51.613 21.1294L51.715 20.1346C50.9957 20.0608 50.545 19.9547 50.3089 19.8436L49.8831 20.7484ZM51.6078 21.1288L56.3118 21.6608L56.4242 20.6672L51.7202 20.1352L51.6078 21.1288ZM56.3182 21.6615C57.4149 21.7712 58.2209 21.9598 58.7651 22.2072L59.1789 21.2968C58.4911 20.9842 57.5611 20.7808 56.4178 20.6665L56.3182 21.6615ZM58.7651 22.2072C59.2433 22.4246 59.6086 22.8177 59.8493 23.4435L60.7827 23.0845C60.4634 22.2543 59.9327 21.6394 59.1789 21.2968L58.7651 22.2072ZM59.85 23.4452C60.0758 24.0258 60.208 25.0203 60.208 26.484H61.208C61.208 24.9984 61.0789 23.8462 60.782 23.0828L59.85 23.4452ZM60.208 26.484C60.208 28.1483 59.9489 29.3056 59.4995 30.0278L60.3485 30.5562C60.9444 29.5984 61.208 28.217 61.208 26.484H60.208ZM59.5022 30.0236C59.0409 30.7484 58.44 31.1988 57.6907 31.4061L57.9573 32.3699C58.9627 32.0918 59.7618 31.4783 60.3458 30.5604L59.5022 30.0236ZM57.7003 31.4035C56.8817 31.6126 55.7254 31.724 54.212 31.724V32.724C55.76 32.724 57.0116 32.6114 57.9477 32.3725L57.7003 31.4035ZM65.4094 32H64.9094V32.5H65.4094V32ZM65.4094 12.736V12.236H64.9094V12.736H65.4094ZM67.8174 12.736H68.3174V12.236H67.8174V12.736ZM67.8174 32V32.5H68.3174V32H67.8174ZM65.9094 32V12.736H64.9094V32H65.9094ZM65.4094 13.236H67.8174V12.236H65.4094V13.236ZM67.3174 12.736V32H68.3174V12.736H67.3174ZM67.8174 31.5H65.4094V32.5H67.8174V31.5ZM90.8651 32H90.3651V32.5H90.8651V32ZM90.8651 16.852H91.3651V16.352H90.8651V16.852ZM90.7531 16.852V16.352H90.4257L90.2948 16.6521L90.7531 16.852ZM84.1451 32V32.5H84.4725L84.6034 32.1999L84.1451 32ZM82.3811 32L81.9225 32.1992L82.0532 32.5H82.3811V32ZM75.8011 16.852L76.2597 16.6528L76.129 16.352H75.8011V16.852ZM75.6891 16.852V16.352H75.1891V16.852H75.6891ZM75.6891 32V32.5H76.1891V32H75.6891ZM73.4211 32H72.9211V32.5H73.4211V32ZM73.4211 12.736V12.236H72.9211V12.736H73.4211ZM76.6691 12.736L77.1269 12.5349L76.9956 12.236H76.6691V12.736ZM83.2491 27.716L82.7913 27.9171L82.9226 28.216H83.2491V27.716ZM83.3891 27.716V28.216H83.7156L83.8469 27.9171L83.3891 27.716ZM89.9691 12.736V12.236H89.6426L89.5113 12.5349L89.9691 12.736ZM93.2171 12.736H93.7171V12.236H93.2171V12.736ZM93.2171 32V32.5H93.7171V32H93.2171ZM91.3651 32V16.852H90.3651V32H91.3651ZM90.8651 16.352H90.7531V17.352H90.8651V16.352ZM90.2948 16.6521L83.6868 31.8001L84.6034 32.1999L91.2114 17.0519L90.2948 16.6521ZM84.1451 31.5H82.3811V32.5H84.1451V31.5ZM82.8397 31.8008L76.2597 16.6528L75.3425 17.0512L81.9225 32.1992L82.8397 31.8008ZM75.8011 16.352H75.6891V17.352H75.8011V16.352ZM75.1891 16.852V32H76.1891V16.852H75.1891ZM75.6891 31.5H73.4211V32.5H75.6891V31.5ZM73.9211 32V12.736H72.9211V32H73.9211ZM73.4211 13.236H76.6691V12.236H73.4211V13.236ZM76.2113 12.9371L82.7913 27.9171L83.7069 27.5149L77.1269 12.5349L76.2113 12.9371ZM83.2491 28.216H83.3891V27.216H83.2491V28.216ZM83.8469 27.9171L90.4269 12.9371L89.5113 12.5349L82.9313 27.5149L83.8469 27.9171ZM89.9691 13.236H93.2171V12.236H89.9691V13.236ZM92.7171 12.736V32H93.7171V12.736H92.7171ZM93.2171 31.5H90.8651V32.5H93.2171V31.5ZM98.8234 12.736V12.236H98.3234V12.736H98.8234ZM110.807 13.492L110.542 13.9154L110.542 13.9154L110.807 13.492ZM112.403 15.536L111.925 15.6816L111.925 15.6816L112.403 15.536ZM112.403 22.144L112.882 22.2896L112.883 22.2867L112.403 22.144ZM110.779 24.216L110.511 23.7941L110.507 23.797L110.779 24.216ZM101.231 25V24.5H100.731V25H101.231ZM101.231 32V32.5H101.731V32H101.231ZM98.8234 32H98.3234V32.5H98.8234V32ZM109.071 22.396L109.27 22.855L109.283 22.8491L109.071 22.396ZM110.163 21.22L109.687 21.067L109.687 21.067L110.163 21.22ZM110.163 16.516L109.683 16.6534L109.685 16.6612L109.687 16.669L110.163 16.516ZM109.099 15.368L108.882 15.8183L108.891 15.8227L108.901 15.8268L109.099 15.368ZM101.231 14.976V14.476H100.731V14.976H101.231ZM101.231 22.76H100.731V23.26H101.231V22.76ZM98.8234 13.236H107.279V12.236H98.8234V13.236ZM107.279 13.236C108.788 13.236 109.854 13.4839 110.542 13.9154L111.073 13.0686C110.155 12.4921 108.869 12.236 107.279 12.236V13.236ZM110.542 13.9154C111.248 14.3593 111.701 14.9449 111.925 15.6816L112.882 15.3904C112.583 14.4097 111.972 13.6327 111.073 13.0686L110.542 13.9154ZM111.925 15.6816C112.167 16.4753 112.295 17.5319 112.295 18.868H113.295C113.295 17.4788 113.163 16.314 112.882 15.3904L111.925 15.6816ZM112.295 18.868C112.295 20.1451 112.167 21.1854 111.924 22.0013L112.883 22.2867C113.162 21.348 113.295 20.2042 113.295 18.868H112.295ZM111.925 21.9984C111.702 22.7329 111.241 23.3297 110.511 23.7942L111.048 24.6378C111.961 24.0569 112.583 23.2724 112.882 22.2896L111.925 21.9984ZM110.507 23.797C109.822 24.2429 108.75 24.5 107.223 24.5V25.5C108.833 25.5 110.132 25.2344 111.052 24.635L110.507 23.797ZM107.223 24.5H101.231V25.5H107.223V24.5ZM100.731 25V32H101.731V25H100.731ZM101.231 31.5H98.8234V32.5H101.231V31.5ZM99.3234 32V12.736H98.3234V32H99.3234ZM106.411 23.26C107.639 23.26 108.612 23.1401 109.27 22.8548L108.873 21.9372C108.411 22.1372 107.611 22.26 106.411 22.26V23.26ZM109.283 22.8491C109.951 22.5371 110.423 22.0455 110.639 21.373L109.687 21.067C109.568 21.4398 109.311 21.7323 108.86 21.9429L109.283 22.8491ZM110.639 21.373C110.832 20.7744 110.915 19.9273 110.915 18.868H109.915C109.915 19.8994 109.831 20.6202 109.687 21.067L110.639 21.373ZM110.915 18.868C110.915 17.8087 110.832 16.9616 110.639 16.363L109.687 16.669C109.831 17.1158 109.915 17.8366 109.915 18.868H110.915ZM110.644 16.3786C110.448 15.6932 109.977 15.2032 109.298 14.9092L108.901 15.8268C109.342 16.0182 109.58 16.2935 109.683 16.6534L110.644 16.3786ZM109.317 14.9177C108.668 14.6046 107.695 14.476 106.467 14.476V15.476C107.667 15.476 108.448 15.6087 108.882 15.8183L109.317 14.9177ZM106.467 14.476H101.231V15.476H106.467V14.476ZM100.731 14.976V22.76H101.731V14.976H100.731ZM101.231 23.26H106.411V22.26H101.231V23.26ZM117.089 32H116.589V32.5H117.089V32ZM117.089 12.736V12.236H116.589V12.736H117.089ZM119.497 12.736H119.997V12.236H119.497V12.736ZM119.497 29.676H118.997V30.176H119.497V29.676ZM128.485 29.676H128.985V29.176H128.485V29.676ZM128.485 32V32.5H128.985V32H128.485ZM117.589 32V12.736H116.589V32H117.589ZM117.089 13.236H119.497V12.236H117.089V13.236ZM118.997 12.736V29.676H119.997V12.736H118.997ZM119.497 30.176H128.485V29.176H119.497V30.176ZM127.985 29.676V32H128.985V29.676H127.985ZM128.485 31.5H117.089V32.5H128.485V31.5ZM132.155 32H131.655V32.5H132.155V32ZM132.155 12.736V12.236H131.655V12.736H132.155ZM144.699 12.736H145.199V12.236H144.699V12.736ZM144.699 14.976V15.476H145.199V14.976H144.699ZM134.563 14.976V14.476H134.063V14.976H134.563ZM134.563 21.164H134.063V21.664H134.563V21.164ZM143.355 21.164H143.855V20.664H143.355V21.164ZM143.355 23.404V23.904H143.855V23.404H143.355ZM134.563 23.404V22.904H134.063V23.404H134.563ZM134.563 29.76H134.063V30.26H134.563V29.76ZM144.699 29.76H145.199V29.26H144.699V29.76ZM144.699 32V32.5H145.199V32H144.699ZM132.655 32V12.736H131.655V32H132.655ZM132.155 13.236H144.699V12.236H132.155V13.236ZM144.199 12.736V14.976H145.199V12.736H144.199ZM144.699 14.476H134.563V15.476H144.699V14.476ZM134.063 14.976V21.164H135.063V14.976H134.063ZM134.563 21.664H143.355V20.664H134.563V21.664ZM142.855 21.164V23.404H143.855V21.164H142.855ZM143.355 22.904H134.563V23.904H143.355V22.904ZM134.063 23.404V29.76H135.063V23.404H134.063ZM134.563 30.26H144.699V29.26H134.563V30.26ZM144.199 29.76V32H145.199V29.76H144.199ZM144.699 31.5H132.155V32.5H144.699V31.5Z" fill="white"/>
</svg>
